<svg width="24" height="24" viewBox="0 0 24 24" fill="none" xmlns="http://www.w3.org/2000/svg">
<path d="M20.7306 6.87011H16.0506V5.60989C16.0506 4.58995 15.2106 3.75 14.1303 3.75H9.63034C8.55056 3.75 7.71013 4.58998 7.71013 5.60989V6.87011H3.03013C2.60992 6.87011 2.25 7.23004 2.25 7.65023V19.4102C2.25 19.8304 2.60993 20.1904 3.03013 20.1904H20.7301C21.1503 20.1904 21.5103 19.8304 21.5103 19.4102L21.5107 7.65023C21.4508 7.23045 21.0905 6.87011 20.7305 6.87011H20.7306ZM9.21056 5.67021C9.21056 5.49025 9.39052 5.31028 9.63076 5.31028H14.1308C14.3706 5.31028 14.551 5.49025 14.551 5.67021V6.93043H9.21096L9.21056 5.67021ZM19.9506 18.6302H3.75056L3.75014 8.37H19.9501L19.9506 18.6302Z" fill="#858585"/>
<path d="M9.69077 14.2501H11.1309V15.5701C11.1309 15.9903 11.4908 16.3502 11.911 16.3502C12.3312 16.3502 12.6911 15.9903 12.6911 15.5701V14.2501H14.1312C14.5514 14.2501 14.9114 13.8902 14.9114 13.47C14.9114 13.0498 14.5514 12.6898 14.1312 12.6898H12.6911V11.3699C12.6911 10.9496 12.3312 10.5897 11.911 10.5897C11.4908 10.5897 11.1309 10.9497 11.1309 11.3699V12.6898H9.69077C9.27057 12.6898 8.91064 13.0498 8.91064 13.47C8.91064 13.8902 9.271 14.2501 9.69077 14.2501Z" fill="#858585"/>
</svg>
