<svg width="24" height="24" viewBox="0 0 24 24" fill="none" xmlns="http://www.w3.org/2000/svg">
<path d="M21.0097 8.58214L12.1603 4.56717C11.9636 4.47761 11.7372 4.47761 11.5405 4.56717L2.69029 8.58C2.42243 8.70137 2.25 8.96881 2.25 9.26303C2.25 9.55684 2.42202 9.8247 2.68987 9.94565L6.41641 11.6369V14.7181V14.7206V18.2254C6.41641 18.6393 6.75248 18.9754 7.16641 18.9754C7.58033 18.9754 7.91641 18.6393 7.91641 18.2254V16.2918C9.07784 17.0363 10.4292 17.4414 11.8506 17.4414C13.8365 17.4414 15.6902 16.6642 17.0713 15.2533C17.2086 15.1136 17.2848 14.9252 17.2848 14.7289V11.6385L21.0097 9.94929C21.278 9.82624 21.4504 9.55922 21.4504 9.26458C21.4504 8.97077 21.278 8.70375 21.0097 8.58196L21.0097 8.58214ZM15.7843 14.4109C14.7138 15.3991 13.3284 15.9402 11.8506 15.9402C10.3703 15.9402 8.98742 15.3919 7.91556 14.4013V12.3175L11.5391 13.961C11.6375 14.0054 11.7438 14.0276 11.8493 14.0276C11.9547 14.0276 12.061 14.0054 12.1594 13.961L15.7847 12.317L15.7843 14.4109ZM11.8502 12.4543L8.96063 11.1435L12.1678 9.64521C12.5428 9.46985 12.7056 9.0237 12.5303 8.6487C12.3545 8.2737 11.9079 8.11006 11.5329 8.28625L7.16312 10.3274L4.81648 9.26312L11.8515 6.07348L18.8852 9.2643L11.8502 12.4543Z" fill="#858585"/>
</svg>
