<svg width="32" height="32" viewBox="0 0 32 32" fill="none" xmlns="http://www.w3.org/2000/svg">
<path fill-rule="evenodd" clip-rule="evenodd" d="M15.4373 7.10724L6.38828 14.5902C6.23924 14.713 6.06719 14.8048 5.88221 14.8601C5.69724 14.9155 5.50306 14.9334 5.31109 14.9127C5.11911 14.892 4.9332 14.8332 4.76426 14.7397C4.59532 14.6462 4.44675 14.5199 4.32728 14.3682C4.08187 14.0571 3.96736 13.6627 4.00806 13.2685C4.04876 12.8744 4.24147 12.5116 4.54528 12.2572L13.5893 4.77424C14.1963 4.27373 14.9585 4 15.7453 4C16.532 4 17.2943 4.27373 17.9013 4.77424L26.9503 12.2572C27.2541 12.5116 27.4468 12.8744 27.4875 13.2685C27.5282 13.6627 27.4137 14.0571 27.1683 14.3682C27.0489 14.5209 26.9002 14.648 26.7308 14.7421C26.5614 14.8363 26.3749 14.8954 26.1822 14.9161C25.9896 14.9368 25.7947 14.9186 25.6092 14.8627C25.4237 14.8067 25.2513 14.714 25.1023 14.5902L16.0533 7.10724C15.9667 7.03553 15.8577 6.99629 15.7453 6.99629C15.6328 6.99629 15.5239 7.03553 15.4373 7.10724ZM26.0264 19.0002V26.0002C26.0315 26.525 25.8282 27.0303 25.4611 27.4052C25.094 27.7802 24.5932 27.9942 24.0684 28.0002H18.6824C18.4201 27.9973 18.1695 27.8904 17.986 27.7029C17.8024 27.5154 17.7008 27.2626 17.7034 27.0002V21.5002C17.7058 21.2379 17.6041 20.9854 17.4206 20.7979C17.2371 20.6105 16.9868 20.5034 16.7244 20.5002H14.7664C14.5041 20.5034 14.2538 20.6105 14.0703 20.7979C13.8868 20.9854 13.785 21.2379 13.7874 21.5002V27.0002C13.7901 27.2626 13.6885 27.5154 13.5049 27.7029C13.3214 27.8904 13.0708 27.9973 12.8084 28.0002H7.42245C6.89774 27.9942 6.39688 27.7802 6.02979 27.4052C5.6627 27.0303 5.45938 26.525 5.46445 26.0002V19.0002C5.47375 18.7003 5.54367 18.4053 5.66998 18.1331C5.7963 17.8609 5.9764 17.617 6.19945 17.4162L14.4994 10.4102C14.8481 10.1154 15.2899 9.95361 15.7464 9.95361C16.203 9.95361 16.6448 10.1154 16.9934 10.4102L25.2934 17.4102C25.5168 17.6119 25.6969 17.8568 25.8229 18.1301C25.9489 18.4034 26.0181 18.6994 26.0264 19.0002Z" fill="#FF537C"/>
</svg>
