<svg width="24" height="24" viewBox="0 0 24 24" fill="none" xmlns="http://www.w3.org/2000/svg">
<path d="M13.7999 8.19001C13.7999 9.11788 13.021 9.87 12.0601 9.87C11.0992 9.87 10.3203 9.11792 10.3203 8.19001C10.3203 7.2621 11.0992 6.51001 12.0601 6.51001C13.021 6.51001 13.7999 7.2621 13.7999 8.19001Z" fill="#858585"/>
<path d="M12.0599 2.25C8.75979 2.25 6 5.01021 6 8.43C6 11.5501 10.8599 20.13 11.3998 21.09C11.5199 21.3298 11.7597 21.4499 12.0598 21.4499C12.3599 21.4499 12.5997 21.3298 12.7198 21.09C13.2597 20.1299 18.1196 11.4898 18.1196 8.43C18.1196 5.01021 15.3598 2.25 12.0597 2.25H12.0599ZM12.0599 19.17C10.3799 16.0499 7.5 10.4098 7.5 8.43C7.5 5.85021 9.53989 3.75 12.0599 3.75C14.5799 3.75 16.6198 5.85021 16.6198 8.43C16.6198 10.4097 13.7399 16.0497 12.0599 19.17Z" fill="#858585"/>
</svg>
