<svg width="94" height="83" viewBox="0 0 94 83" fill="none" xmlns="http://www.w3.org/2000/svg">
<path d="M21.2167 59V50.432H27.6487V59H26.5807V51.38H22.2967V59H21.2167ZM32.9101 52.448C33.7021 52.448 34.3381 52.724 34.8181 53.276C35.3061 53.828 35.5501 54.66 35.5501 55.772C35.5501 56.5 35.4381 57.116 35.2141 57.62C34.9981 58.116 34.6901 58.492 34.2901 58.748C33.8981 58.996 33.4341 59.12 32.8981 59.12C32.5701 59.12 32.2781 59.076 32.0221 58.988C31.7661 58.9 31.5461 58.788 31.3621 58.652C31.1861 58.508 31.0341 58.352 30.9061 58.184H30.8341C30.8501 58.32 30.8661 58.492 30.8821 58.7C30.8981 58.908 30.9061 59.088 30.9061 59.24V61.88H29.8501V52.568H30.7141L30.8581 53.444H30.9061C31.0341 53.26 31.1861 53.092 31.3621 52.94C31.5461 52.788 31.7621 52.668 32.0101 52.58C32.2661 52.492 32.5661 52.448 32.9101 52.448ZM32.7181 53.336C32.2861 53.336 31.9381 53.42 31.6741 53.588C31.4101 53.748 31.2181 53.992 31.0981 54.32C30.9781 54.648 30.9141 55.064 30.9061 55.568V55.772C30.9061 56.3 30.9621 56.748 31.0741 57.116C31.1861 57.484 31.3741 57.764 31.6381 57.956C31.9101 58.148 32.2781 58.244 32.7421 58.244C33.1341 58.244 33.4541 58.136 33.7021 57.92C33.9581 57.704 34.1461 57.412 34.2661 57.044C34.3941 56.668 34.4581 56.24 34.4581 55.76C34.4581 55.024 34.3141 54.436 34.0261 53.996C33.7461 53.556 33.3101 53.336 32.7181 53.336ZM42.8249 55.772C42.8249 56.308 42.7529 56.784 42.6089 57.2C42.4729 57.608 42.2729 57.956 42.0089 58.244C41.7529 58.532 41.4369 58.752 41.0609 58.904C40.6929 59.048 40.2809 59.12 39.8249 59.12C39.4009 59.12 39.0089 59.048 38.6489 58.904C38.2889 58.752 37.9769 58.532 37.7129 58.244C37.4489 57.956 37.2409 57.608 37.0889 57.2C36.9449 56.784 36.8729 56.308 36.8729 55.772C36.8729 55.06 36.9929 54.46 37.2329 53.972C37.4729 53.476 37.8169 53.1 38.2649 52.844C38.7129 52.58 39.2449 52.448 39.8609 52.448C40.4449 52.448 40.9569 52.58 41.3969 52.844C41.8449 53.1 42.1929 53.476 42.4409 53.972C42.6969 54.46 42.8249 55.06 42.8249 55.772ZM37.9649 55.772C37.9649 56.276 38.0289 56.716 38.1569 57.092C38.2929 57.46 38.5009 57.744 38.7809 57.944C39.0609 58.144 39.4169 58.244 39.8489 58.244C40.2809 58.244 40.6369 58.144 40.9169 57.944C41.1969 57.744 41.4009 57.46 41.5289 57.092C41.6649 56.716 41.7329 56.276 41.7329 55.772C41.7329 55.26 41.6649 54.824 41.5289 54.464C41.3929 54.104 41.1849 53.828 40.9049 53.636C40.6329 53.436 40.2769 53.336 39.8369 53.336C39.1809 53.336 38.7049 53.552 38.4089 53.984C38.1129 54.416 37.9649 55.012 37.9649 55.772ZM48.3385 52.472C48.9785 52.528 49.5345 52.696 50.0065 52.976C50.4865 53.256 50.8585 53.632 51.1225 54.104C51.3865 54.576 51.5185 55.136 51.5185 55.784C51.5185 56.432 51.3905 56.996 51.1345 57.476C50.8785 57.948 50.5145 58.324 50.0425 58.604C49.5705 58.876 49.0025 59.04 48.3385 59.096V61.88H47.3065V59.096C46.6745 59.04 46.1185 58.876 45.6385 58.604C45.1585 58.324 44.7865 57.948 44.5225 57.476C44.2585 56.996 44.1265 56.432 44.1265 55.784C44.1265 55.128 44.2545 54.564 44.5105 54.092C44.7665 53.612 45.1345 53.236 45.6145 52.964C46.0945 52.684 46.6705 52.52 47.3425 52.472V49.88H48.3385V52.472ZM47.3425 53.348C46.8545 53.396 46.4545 53.52 46.1425 53.72C45.8305 53.92 45.5985 54.192 45.4465 54.536C45.3025 54.88 45.2305 55.296 45.2305 55.784C45.2305 56.264 45.3025 56.68 45.4465 57.032C45.5985 57.376 45.8305 57.652 46.1425 57.86C46.4545 58.06 46.8545 58.184 47.3425 58.232V53.348ZM48.3385 58.232C48.8185 58.176 49.2105 58.048 49.5145 57.848C49.8265 57.648 50.0545 57.376 50.1985 57.032C50.3505 56.68 50.4265 56.264 50.4265 55.784C50.4265 55.304 50.3505 54.892 50.1985 54.548C50.0465 54.204 49.8145 53.932 49.5025 53.732C49.1985 53.532 48.8105 53.408 48.3385 53.36V58.232ZM54.1898 56.492C54.1898 56.564 54.1858 56.668 54.1778 56.804C54.1778 56.932 54.1738 57.072 54.1658 57.224C54.1578 57.368 54.1498 57.508 54.1418 57.644C54.1338 57.772 54.1258 57.876 54.1178 57.956L57.5618 52.568H58.8578V59H57.8738V55.208C57.8738 55.08 57.8738 54.912 57.8738 54.704C57.8818 54.496 57.8898 54.292 57.8978 54.092C57.9058 53.884 57.9138 53.728 57.9218 53.624L54.5018 59H53.1938V52.568H54.1898V56.492ZM65.8008 59H64.7328V53.444H62.8368C62.7568 54.46 62.6568 55.328 62.5368 56.048C62.4168 56.76 62.2648 57.34 62.0808 57.788C61.8968 58.236 61.6768 58.564 61.4208 58.772C61.1648 58.98 60.8648 59.084 60.5208 59.084C60.4168 59.084 60.3128 59.076 60.2088 59.06C60.1128 59.052 60.0328 59.032 59.9688 59V58.208C60.0168 58.224 60.0688 58.236 60.1248 58.244C60.1808 58.252 60.2368 58.256 60.2928 58.256C60.4688 58.256 60.6288 58.184 60.7728 58.04C60.9168 57.896 61.0448 57.676 61.1568 57.38C61.2768 57.084 61.3848 56.712 61.4808 56.264C61.5768 55.808 61.6608 55.272 61.7328 54.656C61.8048 54.04 61.8688 53.344 61.9248 52.568H65.8008V59ZM70.8063 55.208C71.3663 55.208 71.8303 55.276 72.1983 55.412C72.5663 55.548 72.8423 55.752 73.0263 56.024C73.2183 56.288 73.3143 56.624 73.3143 57.032C73.3143 57.432 73.2223 57.78 73.0383 58.076C72.8623 58.372 72.5863 58.6 72.2103 58.76C71.8343 58.92 71.3503 59 70.7583 59H67.8423V52.568H68.8983V55.208H70.8063ZM72.2583 57.092C72.2583 56.7 72.1183 56.436 71.8383 56.3C71.5663 56.156 71.1823 56.084 70.6863 56.084H68.8983V58.148H70.7103C71.1583 58.148 71.5263 58.068 71.8143 57.908C72.1103 57.748 72.2583 57.476 72.2583 57.092Z" fill="#858585"/>
<path fill-rule="evenodd" clip-rule="evenodd" d="M48 25C50.2091 25 52 23.2091 52 21C52 18.7909 50.2091 17 48 17C45.7909 17 44 18.7909 44 21C44 23.2091 45.7909 25 48 25ZM47 27C42.5817 27 39 30.5817 39 35V38C39 39.6569 40.3431 41 42 41H54C55.6569 41 57 39.6569 57 38V35C57 30.5817 53.4183 27 49 27H47Z" fill="#858585"/>
</svg>
