<svg width="94" height="83" viewBox="0 0 94 83" fill="none" xmlns="http://www.w3.org/2000/svg">
<g clip-path="url(#clip0_6742_189)">
<path d="M47.5 20C41.159 20 36 24.5838 36 30.218C36.0196 31.5725 36.3139 32.9059 36.8625 34.1245C37.411 35.3431 38.2003 36.4173 39.175 37.2717L36.875 42.2189C36.8284 42.3191 36.8119 42.4324 36.8278 42.5432C36.8437 42.6539 36.8912 42.7566 36.9636 42.8369C37.0361 42.9172 37.13 42.9711 37.2322 42.9912C37.3344 43.0114 37.4399 42.9966 37.534 42.9491L43.683 39.8623C44.9239 40.2467 46.2089 40.4402 47.5 40.4372C53.841 40.4372 59 35.8534 59 30.218C59 24.5827 53.841 20 47.5 20Z" fill="#858585"/>
<circle cx="56.5" cy="24.5" r="9.5" fill="#FF537C" stroke="white" stroke-width="2"/>
<path d="M54.574 28.0001V27.3995H56.2439V21.5988L54.574 22.3019V21.7013L56.2439 20.9982H56.8738V27.3995H58.5437V28.0001H54.574Z" fill="white"/>
</g>
<path d="M45.3058 59H44.2258V55.484C43.7618 55.644 43.3258 55.776 42.9178 55.88C42.5178 55.976 42.0698 56.024 41.5738 56.024C40.7738 56.024 40.1538 55.84 39.7138 55.472C39.2738 55.096 39.0538 54.556 39.0538 53.852V50.432H40.1338V53.696C40.1338 54.16 40.2538 54.508 40.4938 54.74C40.7418 54.964 41.1378 55.076 41.6818 55.076C42.1538 55.076 42.5778 55.032 42.9538 54.944C43.3298 54.856 43.7538 54.736 44.2258 54.584V50.432H45.3058V59ZM49.9287 52.46C50.7127 52.46 51.2927 52.632 51.6687 52.976C52.0447 53.32 52.2327 53.868 52.2327 54.62V59H51.4647L51.2607 58.088H51.2127C51.0287 58.32 50.8367 58.516 50.6367 58.676C50.4447 58.828 50.2207 58.94 49.9647 59.012C49.7167 59.084 49.4127 59.12 49.0527 59.12C48.6687 59.12 48.3207 59.052 48.0087 58.916C47.7047 58.78 47.4647 58.572 47.2887 58.292C47.1127 58.004 47.0247 57.644 47.0247 57.212C47.0247 56.572 47.2767 56.08 47.7807 55.736C48.2847 55.384 49.0607 55.192 50.1087 55.16L51.2007 55.124V54.74C51.2007 54.204 51.0847 53.832 50.8527 53.624C50.6207 53.416 50.2927 53.312 49.8687 53.312C49.5327 53.312 49.2127 53.364 48.9087 53.468C48.6047 53.564 48.3207 53.676 48.0567 53.804L47.7327 53.012C48.0127 52.86 48.3447 52.732 48.7287 52.628C49.1127 52.516 49.5127 52.46 49.9287 52.46ZM50.2407 55.892C49.4407 55.924 48.8847 56.052 48.5727 56.276C48.2687 56.5 48.1167 56.816 48.1167 57.224C48.1167 57.584 48.2247 57.848 48.4407 58.016C48.6647 58.184 48.9487 58.268 49.2927 58.268C49.8367 58.268 50.2887 58.12 50.6487 57.824C51.0087 57.52 51.1887 57.056 51.1887 56.432V55.856L50.2407 55.892ZM58.6592 53.456H56.5592V59H55.5152V53.456H53.4392V52.568H58.6592V53.456Z" fill="#858585"/>
<defs>
<clipPath id="clip0_6742_189">
<rect width="32" height="32" fill="white" transform="translate(34 13)"/>
</clipPath>
</defs>
</svg>
